<?xml version="1.0" standalone="no"?><!DOCTYPE svg PUBLIC "-//W3C//DTD SVG 1.1//EN" "http://www.w3.org/Graphics/SVG/1.1/DTD/svg11.dtd"><svg class="icon" height="512" viewBox="0 0 1024 1024" version="1.1" xmlns="http://www.w3.org/2000/svg"><path d="M925.595 337.9c-22.575-53.373-54.892-101.307-96.051-142.466-41.159-41.159-89.092-73.476-142.466-96.051-55.264-23.375-113.964-35.226-174.469-35.226-60.504 0-119.204 11.852-174.468 35.226-53.373 22.575-101.307 54.892-142.466 96.051-41.159 41.159-73.476 89.092-96.051 142.466-23.375 55.264-35.226 113.964-35.226 174.468 0 60.505 11.852 119.204 35.226 174.468 22.575 53.373 54.892 101.306 96.051 142.466 41.159 41.16 89.092 73.477 142.466 96.051 55.264 23.376 113.964 35.227 174.468 35.227s119.204-11.852 174.469-35.227c53.373-22.575 101.306-54.892 142.466-96.051s73.477-89.092 96.051-142.466c23.375-55.264 35.227-113.963 35.227-174.468 0-60.504-11.853-119.204-35.227-174.468zM512.608 940.571c-236.111 0-428.203-192.092-428.203-428.203 0-236.112 192.091-428.204 428.203-428.204s428.204 192.091 428.204 428.204c0 236.111-192.091 428.203-428.204 428.203zM655.483 300.582H367.811c-31.715 0-57.517 25.802-57.517 57.517v309.954c0 31.715 25.802 57.517 57.517 57.517H577v-20H367.811c-20.687 0-37.517-16.83-37.517-37.517V358.099c0-20.687 16.83-37.517 37.517-37.517h287.672c20.687 0 37.517 16.83 37.517 37.517V495h20V358.099c0-31.715-25.802-57.517-57.517-57.517zM383 391.031h182v20H383zM383 481.031h128.647v20H383zM383 582h182v20H383zM698.496 553.241c-9.25-7.063-21.506-10.594-36.768-10.594-14.931 0-29.322 3.949-43.175 11.848v23.353c11.363-10.937 24.636-16.404 39.815-16.404 8.71 0 15.884 2.107 21.525 6.322 5.64 4.215 8.461 9.968 8.461 17.259 0 4.101-1.182 8.43-3.546 12.986s-8.772 11.354-19.224 20.391c-10.202 9.038-16.548 16.119-19.037 21.245-2.488 5.126-3.732 10.195-3.732 15.208 0 6.379 1.036 12.379 3.11 17.998h23.268c-2.904-5.998-4.354-11.771-4.354-17.314 0-4.937 1.493-9.53 4.479-13.784 2.986-4.252 8.834-10.139 17.544-17.657 11.528-10.024 18.663-18.056 21.4-24.093s4.106-11.979 4.106-17.828c0.001-12.227-4.624-21.872-13.872-28.936zM670.189 699.908c-3.153-2.849-6.927-4.272-11.322-4.272-4.397 0-8.171 1.424-11.322 4.272-3.153 2.848-4.729 6.247-4.729 10.195 0 3.722 1.534 7.025 4.604 9.91 3.068 2.886 7.093 4.329 12.069 4.329 4.063 0 7.652-1.424 10.763-4.271 3.11-2.849 4.666-6.17 4.666-9.968 0-3.948-1.577-7.347-4.729-10.195z" /></svg>