<?xml version="1.0" standalone="no"?><!DOCTYPE svg PUBLIC "-//W3C//DTD SVG 1.1//EN" "http://www.w3.org/Graphics/SVG/1.1/DTD/svg11.dtd"><svg class="icon" height="512" viewBox="0 0 1024 1024" version="1.1" xmlns="http://www.w3.org/2000/svg"><path d="M718.19776 191.155214 289.910978 191.155214c-111.626514 0-202.11707 90.491508-202.11707 202.11707l0 306.366145c0 111.626514 90.491508 202.113259 202.11707 202.113259L718.19776 901.751688c111.626514 0 202.118022-90.486745 202.118022-202.113259l0-306.366145C920.315783 281.646722 829.824275 191.155214 718.19776 191.155214L718.19776 191.155214zM884.092508 699.638428c0 44.310358-17.256254 85.967885-48.588225 117.304618-31.332923 31.332923-72.99045 48.589177-117.306523 48.589177L289.910978 865.532224c-44.31131 0-85.972648-17.256254-117.305571-48.589177-31.33197-31.336733-48.589177-72.994261-48.589177-117.304618l0-306.366145c0-44.31131 17.257207-85.972648 48.589177-117.306523 31.332923-31.33197 72.995213-48.589177 117.305571-48.589177L718.19776 227.376583c44.31512 0 85.972648 17.257207 117.306523 48.589177 31.33197 31.332923 48.588225 72.995213 48.588225 117.306523L884.092508 699.638428 884.092508 699.638428zM884.092508 699.638428M450.298127 617.089217M119.419262 701.249177c32.857943 18.665064 80.373605 38.247427 135.103822 38.247427 63.846045 0 132.209046-43.0711 204.577486-88.67501 73.410521-46.251639 149.303368-94.076877 215.016396-94.076877 117.779937 0 211.193844 83.116926 212.120668 83.956116l0.436264-0.307671 0-59.3891c-44.162714-29.046822-120.717577-68.212499-212.557885-68.212499-84.675285 0-168.164656 52.602237-248.888796 103.472753-61.857137 38.971359-125.826061 79.280086-170.704133 79.280086-62.957324 0-116.841683-37.097708-135.103822-51.255343L119.419262 701.249177zM319.500749 523.28953c50.204689 0 90.901101-40.361118 90.901101-90.14383 0-49.787475-40.696413-90.144783-90.901101-90.144783-50.201831 0-90.902054 40.357308-90.902054 90.144783C228.597743 482.928412 269.298918 523.28953 319.500749 523.28953L319.500749 523.28953 319.500749 523.28953zM319.838901 388.011393c24.994707 0 45.257185 20.090067 45.257185 44.881883 0 24.78991-20.26343 44.88093-45.257185 44.88093-24.99947 0-45.261947-20.090067-45.261947-44.88093C274.579812 408.106223 294.843242 388.011393 319.838901 388.011393L319.838901 388.011393 319.838901 388.011393zM319.838901 388.011393" /></svg>