<?xml version="1.0" standalone="no"?><!DOCTYPE svg PUBLIC "-//W3C//DTD SVG 1.1//EN" "http://www.w3.org/Graphics/SVG/1.1/DTD/svg11.dtd"><svg class="icon" height="512" viewBox="0 0 1024 1024" version="1.1" xmlns="http://www.w3.org/2000/svg"><path d="M880 891.2l-80-95.2c31.2-36.8 50.4-84.8 51.2-136.8 0.8-57.6-20.8-112.8-61.6-153.6-40-41.6-94.4-64.8-152-65.6-57.6-0.8-112.8 20.8-153.6 61.6-41.6 40-64.8 94.4-65.6 152-0.8 57.6 20.8 112.8 61.6 153.6s94.4 64.8 152 65.6h3.2c43.2 0 83.2-12.8 116.8-34.4l78.4 93.6c6.4 7.2 15.2 11.2 24.8 11.2 7.2 0 14.4-2.4 20.8-7.2 13.6-11.2 16-31.2 4-44.8z m-246.4-66.4c-44.8-0.8-87.2-18.4-118.4-51.2-31.2-32-48-74.4-48-120 0.8-44.8 18.4-87.2 51.2-118.4 32-31.2 73.6-48 117.6-48h2.4c44.8 0.8 87.2 18.4 118.4 51.2 31.2 32 48 74.4 48 120-2.4 92.8-78.4 168-171.2 166.4zM863.2 303.2L676.8 114.4c-4.8-4.8-11.2-7.2-17.6-7.2H212c-39.2 0-70.4 31.2-70.4 68.8v723.2c0 38.4 31.2 68.8 68.8 68.8h408c13.6 0 24-10.4 24-24s-10.4-24-24-24h-408c-11.2 0-20.8-9.6-20.8-20.8V176c0-12 9.6-20.8 22.4-20.8h424v120c0 37.6 30.4 68.8 68 68.8h116.8v105.6c0 13.6 10.4 24 24 24s24-10.4 24-24V326.4c2.4-8 0-17.6-5.6-23.2zM704 296c-11.2 0-20-9.6-20-20.8V189.6L788.8 296H704zM292 409.6c-13.6 0-24 10.4-24 24s10.4 24 24 24h174.4c13.6 0 24-10.4 24-24s-10.4-24-24-24H292zM530.4 342.4c13.6 0 24-10.4 24-24s-10.4-24-24-24l-240-0.8c-13.6 0-24 10.4-24 24s10.4 24 24 24l240 0.8z" /></svg>